<mxfile host="app.diagrams.net" modified="2023-08-08T09:55:44.343Z" agent="Mozilla/5.0 (Windows NT 10.0; Win64; x64) AppleWebKit/537.36 (KHTML, like Gecko) Chrome/115.0.0.0 Safari/537.36 Edg/115.0.1901.188" etag="BKKZZu1xJSettAydXXKZ" version="21.6.6" type="github" pages="3">
  <diagram name="SiaB_Backend" id="HNLe9tmTZSEHiI3kCB13">
    <mxGraphModel dx="1619" dy="884" grid="1" gridSize="10" guides="1" tooltips="1" connect="1" arrows="1" fold="1" page="1" pageScale="1" pageWidth="1169" pageHeight="1654" math="0" shadow="0">
      <root>
        <mxCell id="0" />
        <mxCell id="1" parent="0" />
        <mxCell id="XuPLsn1WkMpv2YPoWqJ1-1" value="" style="rounded=0;whiteSpace=wrap;html=1;" parent="1" vertex="1">
          <mxGeometry x="80" y="80" width="160" height="40" as="geometry" />
        </mxCell>
        <mxCell id="XuPLsn1WkMpv2YPoWqJ1-2" value="clear-connect" style="text;html=1;strokeColor=none;fillColor=none;align=center;verticalAlign=middle;whiteSpace=wrap;rounded=0;" parent="1" vertex="1">
          <mxGeometry x="90" y="85" width="130" height="30" as="geometry" />
        </mxCell>
        <mxCell id="XuPLsn1WkMpv2YPoWqJ1-3" value="" style="rounded=0;whiteSpace=wrap;html=1;" parent="1" vertex="1">
          <mxGeometry x="80" y="200" width="160" height="40" as="geometry" />
        </mxCell>
        <mxCell id="XuPLsn1WkMpv2YPoWqJ1-4" value="delivery-tracking" style="text;html=1;strokeColor=none;fillColor=none;align=center;verticalAlign=middle;whiteSpace=wrap;rounded=0;" parent="1" vertex="1">
          <mxGeometry x="90" y="205" width="130" height="30" as="geometry" />
        </mxCell>
        <mxCell id="XuPLsn1WkMpv2YPoWqJ1-5" value="backend" style="text;html=1;strokeColor=none;fillColor=none;align=left;verticalAlign=middle;whiteSpace=wrap;rounded=0;" parent="1" vertex="1">
          <mxGeometry x="320" y="85" width="60" height="30" as="geometry" />
        </mxCell>
        <mxCell id="XuPLsn1WkMpv2YPoWqJ1-6" value="backend" style="text;html=1;strokeColor=none;fillColor=none;align=left;verticalAlign=middle;whiteSpace=wrap;rounded=0;" parent="1" vertex="1">
          <mxGeometry x="320" y="165" width="60" height="30" as="geometry" />
        </mxCell>
        <mxCell id="XuPLsn1WkMpv2YPoWqJ1-7" value="client" style="text;html=1;strokeColor=none;fillColor=none;align=left;verticalAlign=middle;whiteSpace=wrap;rounded=0;" parent="1" vertex="1">
          <mxGeometry x="320" y="206" width="60" height="30" as="geometry" />
        </mxCell>
        <mxCell id="XuPLsn1WkMpv2YPoWqJ1-8" value="events" style="text;html=1;strokeColor=none;fillColor=none;align=left;verticalAlign=middle;whiteSpace=wrap;rounded=0;" parent="1" vertex="1">
          <mxGeometry x="320" y="246" width="60" height="30" as="geometry" />
        </mxCell>
        <mxCell id="XuPLsn1WkMpv2YPoWqJ1-9" value="" style="endArrow=classic;html=1;rounded=0;" parent="1" edge="1">
          <mxGeometry width="50" height="50" relative="1" as="geometry">
            <mxPoint x="250" y="100" as="sourcePoint" />
            <mxPoint x="310" y="100" as="targetPoint" />
          </mxGeometry>
        </mxCell>
        <mxCell id="XuPLsn1WkMpv2YPoWqJ1-10" value="" style="endArrow=classic;html=1;rounded=0;entryX=0;entryY=0.5;entryDx=0;entryDy=0;" parent="1" target="XuPLsn1WkMpv2YPoWqJ1-7" edge="1">
          <mxGeometry width="50" height="50" relative="1" as="geometry">
            <mxPoint x="250" y="220.5" as="sourcePoint" />
            <mxPoint x="310" y="220.5" as="targetPoint" />
          </mxGeometry>
        </mxCell>
        <mxCell id="XuPLsn1WkMpv2YPoWqJ1-11" value="" style="endArrow=classic;html=1;rounded=0;entryX=0;entryY=0.5;entryDx=0;entryDy=0;" parent="1" target="XuPLsn1WkMpv2YPoWqJ1-6" edge="1">
          <mxGeometry width="50" height="50" relative="1" as="geometry">
            <mxPoint x="280" y="220" as="sourcePoint" />
            <mxPoint x="310" y="190" as="targetPoint" />
            <Array as="points">
              <mxPoint x="280" y="180" />
            </Array>
          </mxGeometry>
        </mxCell>
        <mxCell id="XuPLsn1WkMpv2YPoWqJ1-12" value="" style="endArrow=classic;html=1;rounded=0;entryX=0;entryY=0.5;entryDx=0;entryDy=0;" parent="1" target="XuPLsn1WkMpv2YPoWqJ1-8" edge="1">
          <mxGeometry width="50" height="50" relative="1" as="geometry">
            <mxPoint x="280" y="220" as="sourcePoint" />
            <mxPoint x="320" y="201" as="targetPoint" />
            <Array as="points">
              <mxPoint x="280" y="260" />
            </Array>
          </mxGeometry>
        </mxCell>
        <mxCell id="XuPLsn1WkMpv2YPoWqJ1-13" value="flowable" style="rounded=0;whiteSpace=wrap;html=1;" parent="1" vertex="1">
          <mxGeometry x="80" y="439" width="160" height="40" as="geometry" />
        </mxCell>
        <mxCell id="XuPLsn1WkMpv2YPoWqJ1-15" value="common" style="text;html=1;strokeColor=none;fillColor=none;align=left;verticalAlign=middle;whiteSpace=wrap;rounded=0;" parent="1" vertex="1">
          <mxGeometry x="320" y="404" width="60" height="30" as="geometry" />
        </mxCell>
        <mxCell id="XuPLsn1WkMpv2YPoWqJ1-16" value="control" style="text;html=1;strokeColor=none;fillColor=none;align=left;verticalAlign=middle;whiteSpace=wrap;rounded=0;" parent="1" vertex="1">
          <mxGeometry x="320" y="445" width="60" height="30" as="geometry" />
        </mxCell>
        <mxCell id="XuPLsn1WkMpv2YPoWqJ1-17" value="design" style="text;html=1;strokeColor=none;fillColor=none;align=left;verticalAlign=middle;whiteSpace=wrap;rounded=0;" parent="1" vertex="1">
          <mxGeometry x="320" y="485" width="60" height="30" as="geometry" />
        </mxCell>
        <mxCell id="XuPLsn1WkMpv2YPoWqJ1-18" value="" style="endArrow=classic;html=1;rounded=0;entryX=-0.034;entryY=0.483;entryDx=0;entryDy=0;entryPerimeter=0;" parent="1" target="XuPLsn1WkMpv2YPoWqJ1-16" edge="1">
          <mxGeometry width="50" height="50" relative="1" as="geometry">
            <mxPoint x="250" y="459.5" as="sourcePoint" />
            <mxPoint x="310" y="459.5" as="targetPoint" />
          </mxGeometry>
        </mxCell>
        <mxCell id="XuPLsn1WkMpv2YPoWqJ1-19" value="" style="endArrow=classic;html=1;rounded=0;entryX=0;entryY=0.5;entryDx=0;entryDy=0;" parent="1" target="XuPLsn1WkMpv2YPoWqJ1-15" edge="1">
          <mxGeometry width="50" height="50" relative="1" as="geometry">
            <mxPoint x="280" y="459" as="sourcePoint" />
            <mxPoint x="310" y="429" as="targetPoint" />
            <Array as="points">
              <mxPoint x="280" y="419" />
            </Array>
          </mxGeometry>
        </mxCell>
        <mxCell id="XuPLsn1WkMpv2YPoWqJ1-20" value="" style="endArrow=classic;html=1;rounded=0;entryX=0;entryY=0.5;entryDx=0;entryDy=0;" parent="1" target="XuPLsn1WkMpv2YPoWqJ1-17" edge="1">
          <mxGeometry width="50" height="50" relative="1" as="geometry">
            <mxPoint x="280" y="459" as="sourcePoint" />
            <mxPoint x="320" y="440" as="targetPoint" />
            <Array as="points">
              <mxPoint x="280" y="499" />
            </Array>
          </mxGeometry>
        </mxCell>
        <mxCell id="XuPLsn1WkMpv2YPoWqJ1-21" value="work" style="text;html=1;strokeColor=none;fillColor=none;align=left;verticalAlign=middle;whiteSpace=wrap;rounded=0;" parent="1" vertex="1">
          <mxGeometry x="320" y="523" width="60" height="30" as="geometry" />
        </mxCell>
        <mxCell id="XuPLsn1WkMpv2YPoWqJ1-22" value="" style="rounded=0;whiteSpace=wrap;html=1;" parent="1" vertex="1">
          <mxGeometry x="80" y="320" width="160" height="40" as="geometry" />
        </mxCell>
        <mxCell id="XuPLsn1WkMpv2YPoWqJ1-23" value="design" style="text;html=1;strokeColor=none;fillColor=none;align=center;verticalAlign=middle;whiteSpace=wrap;rounded=0;" parent="1" vertex="1">
          <mxGeometry x="90" y="325" width="130" height="30" as="geometry" />
        </mxCell>
        <mxCell id="XuPLsn1WkMpv2YPoWqJ1-24" value="backend" style="text;html=1;strokeColor=none;fillColor=none;align=left;verticalAlign=middle;whiteSpace=wrap;rounded=0;" parent="1" vertex="1">
          <mxGeometry x="320" y="325" width="60" height="30" as="geometry" />
        </mxCell>
        <mxCell id="XuPLsn1WkMpv2YPoWqJ1-25" value="" style="endArrow=classic;html=1;rounded=0;" parent="1" edge="1">
          <mxGeometry width="50" height="50" relative="1" as="geometry">
            <mxPoint x="250" y="340" as="sourcePoint" />
            <mxPoint x="310" y="340" as="targetPoint" />
          </mxGeometry>
        </mxCell>
        <mxCell id="XuPLsn1WkMpv2YPoWqJ1-26" value="" style="endArrow=classic;html=1;rounded=0;entryX=0;entryY=0.5;entryDx=0;entryDy=0;" parent="1" edge="1">
          <mxGeometry width="50" height="50" relative="1" as="geometry">
            <mxPoint x="280" y="497" as="sourcePoint" />
            <mxPoint x="320" y="538" as="targetPoint" />
            <Array as="points">
              <mxPoint x="280" y="537" />
            </Array>
          </mxGeometry>
        </mxCell>
        <mxCell id="XuPLsn1WkMpv2YPoWqJ1-27" value="" style="rounded=0;whiteSpace=wrap;html=1;" parent="1" vertex="1">
          <mxGeometry x="80" y="600" width="160" height="40" as="geometry" />
        </mxCell>
        <mxCell id="XuPLsn1WkMpv2YPoWqJ1-28" value="manufacturing" style="text;html=1;strokeColor=none;fillColor=none;align=center;verticalAlign=middle;whiteSpace=wrap;rounded=0;" parent="1" vertex="1">
          <mxGeometry x="90" y="605" width="130" height="30" as="geometry" />
        </mxCell>
        <mxCell id="XuPLsn1WkMpv2YPoWqJ1-29" value="backend" style="text;html=1;strokeColor=none;fillColor=none;align=left;verticalAlign=middle;whiteSpace=wrap;rounded=0;" parent="1" vertex="1">
          <mxGeometry x="320" y="605" width="60" height="30" as="geometry" />
        </mxCell>
        <mxCell id="XuPLsn1WkMpv2YPoWqJ1-30" value="" style="endArrow=classic;html=1;rounded=0;" parent="1" edge="1">
          <mxGeometry width="50" height="50" relative="1" as="geometry">
            <mxPoint x="250" y="620" as="sourcePoint" />
            <mxPoint x="310" y="620" as="targetPoint" />
          </mxGeometry>
        </mxCell>
        <mxCell id="XuPLsn1WkMpv2YPoWqJ1-31" value="" style="rounded=0;whiteSpace=wrap;html=1;" parent="1" vertex="1">
          <mxGeometry x="80" y="720" width="160" height="40" as="geometry" />
        </mxCell>
        <mxCell id="XuPLsn1WkMpv2YPoWqJ1-32" value="order" style="text;html=1;strokeColor=none;fillColor=none;align=center;verticalAlign=middle;whiteSpace=wrap;rounded=0;" parent="1" vertex="1">
          <mxGeometry x="90" y="725" width="130" height="30" as="geometry" />
        </mxCell>
        <mxCell id="XuPLsn1WkMpv2YPoWqJ1-33" value="backend" style="text;html=1;strokeColor=none;fillColor=none;align=left;verticalAlign=middle;whiteSpace=wrap;rounded=0;" parent="1" vertex="1">
          <mxGeometry x="320" y="685" width="60" height="30" as="geometry" />
        </mxCell>
        <mxCell id="XuPLsn1WkMpv2YPoWqJ1-34" value="client" style="text;html=1;strokeColor=none;fillColor=none;align=left;verticalAlign=middle;whiteSpace=wrap;rounded=0;" parent="1" vertex="1">
          <mxGeometry x="320" y="726" width="60" height="30" as="geometry" />
        </mxCell>
        <mxCell id="XuPLsn1WkMpv2YPoWqJ1-35" value="common" style="text;html=1;strokeColor=none;fillColor=none;align=left;verticalAlign=middle;whiteSpace=wrap;rounded=0;" parent="1" vertex="1">
          <mxGeometry x="320" y="766" width="60" height="30" as="geometry" />
        </mxCell>
        <mxCell id="XuPLsn1WkMpv2YPoWqJ1-36" value="" style="endArrow=classic;html=1;rounded=0;entryX=0;entryY=0.5;entryDx=0;entryDy=0;" parent="1" target="XuPLsn1WkMpv2YPoWqJ1-34" edge="1">
          <mxGeometry width="50" height="50" relative="1" as="geometry">
            <mxPoint x="250" y="740.5" as="sourcePoint" />
            <mxPoint x="310" y="740.5" as="targetPoint" />
          </mxGeometry>
        </mxCell>
        <mxCell id="XuPLsn1WkMpv2YPoWqJ1-37" value="" style="endArrow=classic;html=1;rounded=0;entryX=0;entryY=0.5;entryDx=0;entryDy=0;" parent="1" target="XuPLsn1WkMpv2YPoWqJ1-33" edge="1">
          <mxGeometry width="50" height="50" relative="1" as="geometry">
            <mxPoint x="280" y="740" as="sourcePoint" />
            <mxPoint x="310" y="710" as="targetPoint" />
            <Array as="points">
              <mxPoint x="280" y="700" />
            </Array>
          </mxGeometry>
        </mxCell>
        <mxCell id="XuPLsn1WkMpv2YPoWqJ1-38" value="" style="endArrow=classic;html=1;rounded=0;entryX=0;entryY=0.5;entryDx=0;entryDy=0;" parent="1" target="XuPLsn1WkMpv2YPoWqJ1-35" edge="1">
          <mxGeometry width="50" height="50" relative="1" as="geometry">
            <mxPoint x="280" y="740" as="sourcePoint" />
            <mxPoint x="320" y="721" as="targetPoint" />
            <Array as="points">
              <mxPoint x="280" y="780" />
            </Array>
          </mxGeometry>
        </mxCell>
        <mxCell id="XuPLsn1WkMpv2YPoWqJ1-39" value="" style="rounded=0;whiteSpace=wrap;html=1;" parent="1" vertex="1">
          <mxGeometry x="80" y="880" width="160" height="40" as="geometry" />
        </mxCell>
        <mxCell id="XuPLsn1WkMpv2YPoWqJ1-40" value="order-hub" style="text;html=1;strokeColor=none;fillColor=none;align=center;verticalAlign=middle;whiteSpace=wrap;rounded=0;" parent="1" vertex="1">
          <mxGeometry x="90" y="885" width="130" height="30" as="geometry" />
        </mxCell>
        <mxCell id="XuPLsn1WkMpv2YPoWqJ1-41" value="backend" style="text;html=1;strokeColor=none;fillColor=none;align=left;verticalAlign=middle;whiteSpace=wrap;rounded=0;" parent="1" vertex="1">
          <mxGeometry x="320" y="885" width="60" height="30" as="geometry" />
        </mxCell>
        <mxCell id="XuPLsn1WkMpv2YPoWqJ1-42" value="" style="endArrow=classic;html=1;rounded=0;entryX=0;entryY=0.5;entryDx=0;entryDy=0;" parent="1" target="XuPLsn1WkMpv2YPoWqJ1-41" edge="1">
          <mxGeometry width="50" height="50" relative="1" as="geometry">
            <mxPoint x="250" y="900" as="sourcePoint" />
            <mxPoint x="310" y="900" as="targetPoint" />
            <Array as="points">
              <mxPoint x="280" y="900" />
            </Array>
          </mxGeometry>
        </mxCell>
        <mxCell id="XuPLsn1WkMpv2YPoWqJ1-43" value="migration" style="text;html=1;strokeColor=none;fillColor=none;align=left;verticalAlign=middle;whiteSpace=wrap;rounded=0;" parent="1" vertex="1">
          <mxGeometry x="320" y="806" width="60" height="30" as="geometry" />
        </mxCell>
        <mxCell id="XuPLsn1WkMpv2YPoWqJ1-44" value="" style="endArrow=classic;html=1;rounded=0;entryX=0;entryY=0.5;entryDx=0;entryDy=0;" parent="1" edge="1">
          <mxGeometry width="50" height="50" relative="1" as="geometry">
            <mxPoint x="280" y="780" as="sourcePoint" />
            <mxPoint x="320" y="821" as="targetPoint" />
            <Array as="points">
              <mxPoint x="280" y="820" />
            </Array>
          </mxGeometry>
        </mxCell>
        <mxCell id="XuPLsn1WkMpv2YPoWqJ1-45" value="client" style="text;html=1;strokeColor=none;fillColor=none;align=left;verticalAlign=middle;whiteSpace=wrap;rounded=0;" parent="1" vertex="1">
          <mxGeometry x="320" y="926" width="60" height="30" as="geometry" />
        </mxCell>
        <mxCell id="XuPLsn1WkMpv2YPoWqJ1-46" value="" style="endArrow=classic;html=1;rounded=0;entryX=0;entryY=0.5;entryDx=0;entryDy=0;" parent="1" edge="1">
          <mxGeometry width="50" height="50" relative="1" as="geometry">
            <mxPoint x="280" y="900" as="sourcePoint" />
            <mxPoint x="320" y="941" as="targetPoint" />
            <Array as="points">
              <mxPoint x="280" y="940" />
            </Array>
          </mxGeometry>
        </mxCell>
        <mxCell id="XuPLsn1WkMpv2YPoWqJ1-47" value="" style="rounded=0;whiteSpace=wrap;html=1;" parent="1" vertex="1">
          <mxGeometry x="80" y="1000" width="160" height="40" as="geometry" />
        </mxCell>
        <mxCell id="XuPLsn1WkMpv2YPoWqJ1-48" value="siab" style="text;html=1;strokeColor=none;fillColor=none;align=center;verticalAlign=middle;whiteSpace=wrap;rounded=0;" parent="1" vertex="1">
          <mxGeometry x="90" y="1005" width="130" height="30" as="geometry" />
        </mxCell>
        <mxCell id="XuPLsn1WkMpv2YPoWqJ1-49" value="backend" style="text;html=1;strokeColor=none;fillColor=none;align=left;verticalAlign=middle;whiteSpace=wrap;rounded=0;" parent="1" vertex="1">
          <mxGeometry x="320" y="1005" width="60" height="30" as="geometry" />
        </mxCell>
        <mxCell id="XuPLsn1WkMpv2YPoWqJ1-50" value="" style="endArrow=classic;html=1;rounded=0;entryX=-0.019;entryY=0.503;entryDx=0;entryDy=0;entryPerimeter=0;" parent="1" target="XuPLsn1WkMpv2YPoWqJ1-49" edge="1">
          <mxGeometry width="50" height="50" relative="1" as="geometry">
            <mxPoint x="250" y="1020" as="sourcePoint" />
            <mxPoint x="310" y="1020" as="targetPoint" />
          </mxGeometry>
        </mxCell>
        <mxCell id="XuPLsn1WkMpv2YPoWqJ1-51" value="events" style="text;html=1;strokeColor=none;fillColor=none;align=left;verticalAlign=middle;whiteSpace=wrap;rounded=0;" parent="1" vertex="1">
          <mxGeometry x="320" y="1046" width="60" height="30" as="geometry" />
        </mxCell>
        <mxCell id="XuPLsn1WkMpv2YPoWqJ1-52" value="" style="endArrow=classic;html=1;rounded=0;entryX=0;entryY=0.5;entryDx=0;entryDy=0;" parent="1" edge="1">
          <mxGeometry width="50" height="50" relative="1" as="geometry">
            <mxPoint x="280" y="1020" as="sourcePoint" />
            <mxPoint x="320" y="1061" as="targetPoint" />
            <Array as="points">
              <mxPoint x="280" y="1060" />
            </Array>
          </mxGeometry>
        </mxCell>
        <mxCell id="XuPLsn1WkMpv2YPoWqJ1-53" value="" style="rounded=0;whiteSpace=wrap;html=1;" parent="1" vertex="1">
          <mxGeometry x="80" y="1120" width="160" height="40" as="geometry" />
        </mxCell>
        <mxCell id="XuPLsn1WkMpv2YPoWqJ1-54" value="threeshape-client" style="text;html=1;strokeColor=none;fillColor=none;align=center;verticalAlign=middle;whiteSpace=wrap;rounded=0;" parent="1" vertex="1">
          <mxGeometry x="90" y="1125" width="130" height="30" as="geometry" />
        </mxCell>
        <mxCell id="XuPLsn1WkMpv2YPoWqJ1-55" value="" style="rounded=0;whiteSpace=wrap;html=1;" parent="1" vertex="1">
          <mxGeometry x="560" y="80" width="160" height="40" as="geometry" />
        </mxCell>
        <mxCell id="XuPLsn1WkMpv2YPoWqJ1-56" value="activemq" style="text;html=1;strokeColor=none;fillColor=none;align=center;verticalAlign=middle;whiteSpace=wrap;rounded=0;" parent="1" vertex="1">
          <mxGeometry x="570" y="85" width="130" height="30" as="geometry" />
        </mxCell>
        <mxCell id="XuPLsn1WkMpv2YPoWqJ1-57" value="" style="rounded=0;whiteSpace=wrap;html=1;" parent="1" vertex="1">
          <mxGeometry x="560" y="160" width="160" height="40" as="geometry" />
        </mxCell>
        <mxCell id="XuPLsn1WkMpv2YPoWqJ1-58" value="postgres" style="text;html=1;strokeColor=none;fillColor=none;align=center;verticalAlign=middle;whiteSpace=wrap;rounded=0;" parent="1" vertex="1">
          <mxGeometry x="570" y="165" width="130" height="30" as="geometry" />
        </mxCell>
        <mxCell id="XuPLsn1WkMpv2YPoWqJ1-59" value="" style="rounded=0;whiteSpace=wrap;html=1;" parent="1" vertex="1">
          <mxGeometry x="560" y="241" width="160" height="40" as="geometry" />
        </mxCell>
        <mxCell id="XuPLsn1WkMpv2YPoWqJ1-60" value="elasticsearch" style="text;html=1;strokeColor=none;fillColor=none;align=center;verticalAlign=middle;whiteSpace=wrap;rounded=0;" parent="1" vertex="1">
          <mxGeometry x="570" y="246" width="130" height="30" as="geometry" />
        </mxCell>
        <mxCell id="XuPLsn1WkMpv2YPoWqJ1-61" value="" style="rounded=0;whiteSpace=wrap;html=1;" parent="1" vertex="1">
          <mxGeometry x="560" y="320" width="160" height="40" as="geometry" />
        </mxCell>
        <mxCell id="XuPLsn1WkMpv2YPoWqJ1-62" value="mssql" style="text;html=1;strokeColor=none;fillColor=none;align=center;verticalAlign=middle;whiteSpace=wrap;rounded=0;" parent="1" vertex="1">
          <mxGeometry x="570" y="325" width="130" height="30" as="geometry" />
        </mxCell>
        <mxCell id="XuPLsn1WkMpv2YPoWqJ1-63" value="" style="rounded=0;whiteSpace=wrap;html=1;" parent="1" vertex="1">
          <mxGeometry x="560" y="399" width="160" height="40" as="geometry" />
        </mxCell>
        <mxCell id="XuPLsn1WkMpv2YPoWqJ1-64" value="redis" style="text;html=1;strokeColor=none;fillColor=none;align=center;verticalAlign=middle;whiteSpace=wrap;rounded=0;" parent="1" vertex="1">
          <mxGeometry x="570" y="404" width="130" height="30" as="geometry" />
        </mxCell>
        <mxCell id="XuPLsn1WkMpv2YPoWqJ1-65" value="" style="rounded=0;whiteSpace=wrap;html=1;" parent="1" vertex="1">
          <mxGeometry x="560" y="480" width="160" height="40" as="geometry" />
        </mxCell>
        <mxCell id="XuPLsn1WkMpv2YPoWqJ1-66" value="rabbitmq" style="text;html=1;strokeColor=none;fillColor=none;align=center;verticalAlign=middle;whiteSpace=wrap;rounded=0;" parent="1" vertex="1">
          <mxGeometry x="570" y="485" width="130" height="30" as="geometry" />
        </mxCell>
        <mxCell id="XuPLsn1WkMpv2YPoWqJ1-67" value="" style="rounded=0;whiteSpace=wrap;html=1;" parent="1" vertex="1">
          <mxGeometry x="560" y="560" width="160" height="40" as="geometry" />
        </mxCell>
        <mxCell id="XuPLsn1WkMpv2YPoWqJ1-68" value="axs-integration-fhir" style="text;html=1;strokeColor=none;fillColor=none;align=center;verticalAlign=middle;whiteSpace=wrap;rounded=0;" parent="1" vertex="1">
          <mxGeometry x="570" y="565" width="130" height="30" as="geometry" />
        </mxCell>
        <mxCell id="XuPLsn1WkMpv2YPoWqJ1-69" value="" style="rounded=0;whiteSpace=wrap;html=1;" parent="1" vertex="1">
          <mxGeometry x="560" y="640" width="160" height="40" as="geometry" />
        </mxCell>
        <mxCell id="XuPLsn1WkMpv2YPoWqJ1-70" value="axs-configuration-backend" style="text;html=1;strokeColor=none;fillColor=none;align=center;verticalAlign=middle;whiteSpace=wrap;rounded=0;" parent="1" vertex="1">
          <mxGeometry x="570" y="645" width="130" height="30" as="geometry" />
        </mxCell>
        <mxCell id="XuPLsn1WkMpv2YPoWqJ1-71" value="" style="rounded=0;whiteSpace=wrap;html=1;" parent="1" vertex="1">
          <mxGeometry x="560" y="721" width="160" height="40" as="geometry" />
        </mxCell>
        <mxCell id="XuPLsn1WkMpv2YPoWqJ1-72" value="axs-patient-hub-backend" style="text;html=1;strokeColor=none;fillColor=none;align=center;verticalAlign=middle;whiteSpace=wrap;rounded=0;" parent="1" vertex="1">
          <mxGeometry x="570" y="726" width="130" height="30" as="geometry" />
        </mxCell>
        <mxCell id="XuPLsn1WkMpv2YPoWqJ1-73" value="" style="rounded=0;whiteSpace=wrap;html=1;" parent="1" vertex="1">
          <mxGeometry x="560" y="801" width="160" height="40" as="geometry" />
        </mxCell>
        <mxCell id="XuPLsn1WkMpv2YPoWqJ1-74" value="axs-integration-product" style="text;html=1;strokeColor=none;fillColor=none;align=center;verticalAlign=middle;whiteSpace=wrap;rounded=0;" parent="1" vertex="1">
          <mxGeometry x="570" y="806" width="130" height="30" as="geometry" />
        </mxCell>
        <mxCell id="XuPLsn1WkMpv2YPoWqJ1-75" value="" style="rounded=0;whiteSpace=wrap;html=1;" parent="1" vertex="1">
          <mxGeometry x="560" y="880" width="160" height="40" as="geometry" />
        </mxCell>
        <mxCell id="XuPLsn1WkMpv2YPoWqJ1-76" value="axs-user-backend" style="text;html=1;strokeColor=none;fillColor=none;align=center;verticalAlign=middle;whiteSpace=wrap;rounded=0;" parent="1" vertex="1">
          <mxGeometry x="570" y="885" width="130" height="30" as="geometry" />
        </mxCell>
        <mxCell id="XuPLsn1WkMpv2YPoWqJ1-77" value="" style="rounded=0;whiteSpace=wrap;html=1;" parent="1" vertex="1">
          <mxGeometry x="560" y="960" width="160" height="40" as="geometry" />
        </mxCell>
        <mxCell id="XuPLsn1WkMpv2YPoWqJ1-78" value="axs-integration-sap" style="text;html=1;strokeColor=none;fillColor=none;align=center;verticalAlign=middle;whiteSpace=wrap;rounded=0;" parent="1" vertex="1">
          <mxGeometry x="570" y="965" width="130" height="30" as="geometry" />
        </mxCell>
        <mxCell id="XuPLsn1WkMpv2YPoWqJ1-79" value="" style="rounded=0;whiteSpace=wrap;html=1;" parent="1" vertex="1">
          <mxGeometry x="560" y="1041" width="160" height="40" as="geometry" />
        </mxCell>
        <mxCell id="XuPLsn1WkMpv2YPoWqJ1-80" value="axs-registry-backend" style="text;html=1;strokeColor=none;fillColor=none;align=center;verticalAlign=middle;whiteSpace=wrap;rounded=0;" parent="1" vertex="1">
          <mxGeometry x="570" y="1046" width="130" height="30" as="geometry" />
        </mxCell>
        <mxCell id="XuPLsn1WkMpv2YPoWqJ1-81" value="" style="rounded=0;whiteSpace=wrap;html=1;" parent="1" vertex="1">
          <mxGeometry x="560" y="1120" width="160" height="40" as="geometry" />
        </mxCell>
        <mxCell id="XuPLsn1WkMpv2YPoWqJ1-82" value="axs-registry-analytics" style="text;html=1;strokeColor=none;fillColor=none;align=center;verticalAlign=middle;whiteSpace=wrap;rounded=0;" parent="1" vertex="1">
          <mxGeometry x="570" y="1125" width="130" height="30" as="geometry" />
        </mxCell>
        <mxCell id="XuPLsn1WkMpv2YPoWqJ1-83" value=" Apache ActiveMQ, is an open-source message broker and message-oriented middleware that facilitates the communication between various software systems or components" style="text;html=1;strokeColor=none;fillColor=none;align=left;verticalAlign=middle;whiteSpace=wrap;rounded=0;" parent="1" vertex="1">
          <mxGeometry x="760" y="80" width="400" height="30" as="geometry" />
        </mxCell>
        <mxCell id="XuPLsn1WkMpv2YPoWqJ1-84" value="Database" style="text;html=1;strokeColor=none;fillColor=none;align=center;verticalAlign=middle;whiteSpace=wrap;rounded=0;" parent="1" vertex="1">
          <mxGeometry x="760" y="160" width="60" height="30" as="geometry" />
        </mxCell>
        <mxCell id="XuPLsn1WkMpv2YPoWqJ1-85" value="" style="rounded=0;whiteSpace=wrap;html=1;" parent="1" vertex="1">
          <mxGeometry x="80" y="1320" width="160" height="40" as="geometry" />
        </mxCell>
        <mxCell id="XuPLsn1WkMpv2YPoWqJ1-86" value="flowable-design&lt;br&gt;(design)" style="text;html=1;strokeColor=none;fillColor=none;align=center;verticalAlign=middle;whiteSpace=wrap;rounded=0;" parent="1" vertex="1">
          <mxGeometry x="90" y="1325" width="130" height="30" as="geometry" />
        </mxCell>
        <mxCell id="XuPLsn1WkMpv2YPoWqJ1-87" value="" style="rounded=0;whiteSpace=wrap;html=1;" parent="1" vertex="1">
          <mxGeometry x="320" y="1320" width="160" height="40" as="geometry" />
        </mxCell>
        <mxCell id="XuPLsn1WkMpv2YPoWqJ1-88" value="flowable-work&lt;br&gt;(instance of design)" style="text;html=1;strokeColor=none;fillColor=none;align=center;verticalAlign=middle;whiteSpace=wrap;rounded=0;" parent="1" vertex="1">
          <mxGeometry x="330" y="1325" width="130" height="30" as="geometry" />
        </mxCell>
        <mxCell id="XuPLsn1WkMpv2YPoWqJ1-89" value="" style="endArrow=classic;html=1;rounded=0;entryX=0;entryY=0.5;entryDx=0;entryDy=0;" parent="1" target="XuPLsn1WkMpv2YPoWqJ1-87" edge="1">
          <mxGeometry width="50" height="50" relative="1" as="geometry">
            <mxPoint x="240" y="1340" as="sourcePoint" />
            <mxPoint x="290" y="1290" as="targetPoint" />
          </mxGeometry>
        </mxCell>
        <mxCell id="NWetAkbdg9ml50M_vyUV-1" value="all the workflows are created here." style="text;html=1;strokeColor=none;fillColor=none;align=center;verticalAlign=middle;whiteSpace=wrap;rounded=0;" parent="1" vertex="1">
          <mxGeometry x="80" y="479" width="170" height="30" as="geometry" />
        </mxCell>
      </root>
    </mxGraphModel>
  </diagram>
  <diagram id="VLA9GJOyFq8i3yuY_fl8" name="SiaB_OrderCreation">
    <mxGraphModel dx="2313" dy="1263" grid="1" gridSize="10" guides="1" tooltips="1" connect="1" arrows="1" fold="1" page="1" pageScale="1" pageWidth="2339" pageHeight="3300" math="0" shadow="0">
      <root>
        <mxCell id="0" />
        <mxCell id="1" parent="0" />
        <mxCell id="qyOjLSUGKGQvyTlfbUjv-1" value="SIAB UI" style="rounded=0;whiteSpace=wrap;html=1;" parent="1" vertex="1">
          <mxGeometry x="80" y="40" width="160" height="40" as="geometry" />
        </mxCell>
        <mxCell id="qyOjLSUGKGQvyTlfbUjv-2" value="Customer Service&lt;br style=&quot;border-color: var(--border-color);&quot;&gt;&lt;b style=&quot;border-color: var(--border-color);&quot;&gt;/customer/&lt;/b&gt;" style="rounded=0;whiteSpace=wrap;html=1;" parent="1" vertex="1">
          <mxGeometry x="320" y="40" width="160" height="40" as="geometry" />
        </mxCell>
        <mxCell id="qyOjLSUGKGQvyTlfbUjv-3" value="Practitioner Service&lt;br&gt;&lt;b style=&quot;border-color: var(--border-color);&quot;&gt;/practitioner/&lt;/b&gt;" style="rounded=0;whiteSpace=wrap;html=1;" parent="1" vertex="1">
          <mxGeometry x="799" y="40" width="160" height="40" as="geometry" />
        </mxCell>
        <mxCell id="qyOjLSUGKGQvyTlfbUjv-4" value="SIAB Backed Service" style="rounded=0;whiteSpace=wrap;html=1;" parent="1" vertex="1">
          <mxGeometry x="1039" y="40" width="160" height="40" as="geometry" />
        </mxCell>
        <mxCell id="qyOjLSUGKGQvyTlfbUjv-5" value="" style="endArrow=none;html=1;rounded=0;" parent="1" edge="1">
          <mxGeometry width="50" height="50" relative="1" as="geometry">
            <mxPoint x="160" y="1042.3529411764705" as="sourcePoint" />
            <mxPoint x="160" y="80" as="targetPoint" />
          </mxGeometry>
        </mxCell>
        <mxCell id="qyOjLSUGKGQvyTlfbUjv-7" value="" style="endArrow=none;html=1;rounded=0;" parent="1" edge="1">
          <mxGeometry width="50" height="50" relative="1" as="geometry">
            <mxPoint x="400" y="1050" as="sourcePoint" />
            <mxPoint x="400.5" y="80" as="targetPoint" />
          </mxGeometry>
        </mxCell>
        <mxCell id="qyOjLSUGKGQvyTlfbUjv-8" value="" style="endArrow=none;html=1;rounded=0;" parent="1" edge="1">
          <mxGeometry width="50" height="50" relative="1" as="geometry">
            <mxPoint x="880" y="1040" as="sourcePoint" />
            <mxPoint x="878.29" y="80" as="targetPoint" />
          </mxGeometry>
        </mxCell>
        <mxCell id="qyOjLSUGKGQvyTlfbUjv-9" value="" style="endArrow=none;html=1;rounded=0;" parent="1" edge="1">
          <mxGeometry width="50" height="50" relative="1" as="geometry">
            <mxPoint x="1118" y="1040" as="sourcePoint" />
            <mxPoint x="1118.29" y="80" as="targetPoint" />
          </mxGeometry>
        </mxCell>
        <mxCell id="qyOjLSUGKGQvyTlfbUjv-10" value="" style="endArrow=classic;html=1;rounded=0;" parent="1" edge="1">
          <mxGeometry width="50" height="50" relative="1" as="geometry">
            <mxPoint x="160" y="358" as="sourcePoint" />
            <mxPoint x="640" y="359" as="targetPoint" />
          </mxGeometry>
        </mxCell>
        <mxCell id="qyOjLSUGKGQvyTlfbUjv-11" value="&lt;font style=&quot;font-size: 10px;&quot;&gt;[2] Searches for an existing Patient&lt;br&gt;&lt;b&gt;&lt;font color=&quot;#0000ff&quot;&gt;Patient&lt;/font&gt; /patient-hub/api/v1/patients/search&lt;/b&gt;&lt;br&gt;&lt;/font&gt;" style="text;html=1;strokeColor=none;fillColor=none;align=center;verticalAlign=middle;whiteSpace=wrap;rounded=0;" parent="1" vertex="1">
          <mxGeometry x="410" y="363" width="230" height="30" as="geometry" />
        </mxCell>
        <mxCell id="qyOjLSUGKGQvyTlfbUjv-12" value="" style="endArrow=classic;html=1;rounded=0;" parent="1" edge="1">
          <mxGeometry width="50" height="50" relative="1" as="geometry">
            <mxPoint x="160" y="119" as="sourcePoint" />
            <mxPoint x="400" y="120" as="targetPoint" />
          </mxGeometry>
        </mxCell>
        <mxCell id="qyOjLSUGKGQvyTlfbUjv-13" value="&lt;font style=&quot;font-size: 10px;&quot;&gt;[1] Searches for an existing Customers(Dentists)&amp;nbsp;&lt;br&gt;&lt;b&gt;/customer/api/v1/users/search&lt;/b&gt;&lt;/font&gt;" style="text;html=1;strokeColor=none;fillColor=none;align=center;verticalAlign=middle;whiteSpace=wrap;rounded=0;" parent="1" vertex="1">
          <mxGeometry x="164" y="96" width="241" height="10" as="geometry" />
        </mxCell>
        <mxCell id="qyOjLSUGKGQvyTlfbUjv-15" value="&lt;font style=&quot;font-size: 10px;&quot;&gt;[2] Creates a new Patient.&lt;br&gt;&lt;b&gt;&lt;font color=&quot;#0000ff&quot;&gt;Patient &lt;/font&gt;patient-hub/api/v1/patients&lt;/b&gt;&lt;br&gt;&lt;/font&gt;" style="text;html=1;strokeColor=none;fillColor=none;align=center;verticalAlign=middle;whiteSpace=wrap;rounded=0;" parent="1" vertex="1">
          <mxGeometry x="442.5" y="322" width="175" height="34" as="geometry" />
        </mxCell>
        <mxCell id="qyOjLSUGKGQvyTlfbUjv-16" value="" style="endArrow=classic;html=1;rounded=0;" parent="1" edge="1">
          <mxGeometry width="50" height="50" relative="1" as="geometry">
            <mxPoint x="160" y="600" as="sourcePoint" />
            <mxPoint x="1120" y="600" as="targetPoint" />
          </mxGeometry>
        </mxCell>
        <mxCell id="qyOjLSUGKGQvyTlfbUjv-17" value="&lt;font style=&quot;font-size: 10px;&quot;&gt;[4] Creates a case instance draft with arch type(Maxilla(upper), Mandila(lower), Dual)&lt;/font&gt;" style="text;html=1;strokeColor=none;fillColor=none;align=center;verticalAlign=middle;whiteSpace=wrap;rounded=0;" parent="1" vertex="1">
          <mxGeometry x="432" y="584" width="480" height="10" as="geometry" />
        </mxCell>
        <mxCell id="qyOjLSUGKGQvyTlfbUjv-18" value="&lt;b&gt;&lt;font style=&quot;font-size: 10px;&quot;&gt;[ siab/api/v1/case-instances/draft ]&lt;/font&gt;&lt;/b&gt;" style="text;html=1;strokeColor=none;fillColor=none;align=center;verticalAlign=middle;whiteSpace=wrap;rounded=0;" parent="1" vertex="1">
          <mxGeometry x="562" y="600" width="210" height="20" as="geometry" />
        </mxCell>
        <mxCell id="qyOjLSUGKGQvyTlfbUjv-19" value="" style="endArrow=classic;html=1;rounded=0;" parent="1" edge="1">
          <mxGeometry width="50" height="50" relative="1" as="geometry">
            <mxPoint x="160" y="695" as="sourcePoint" />
            <mxPoint x="1120" y="696" as="targetPoint" />
          </mxGeometry>
        </mxCell>
        <mxCell id="qyOjLSUGKGQvyTlfbUjv-20" value="&lt;font style=&quot;font-size: 10px;&quot;&gt;[5] PATCH API requests with each selection&lt;/font&gt;" style="text;html=1;strokeColor=none;fillColor=none;align=center;verticalAlign=middle;whiteSpace=wrap;rounded=0;" parent="1" vertex="1">
          <mxGeometry x="400" y="680" width="230" height="10" as="geometry" />
        </mxCell>
        <mxCell id="qyOjLSUGKGQvyTlfbUjv-21" value="" style="endArrow=classic;html=1;rounded=0;" parent="1" edge="1">
          <mxGeometry width="50" height="50" relative="1" as="geometry">
            <mxPoint x="160" y="705" as="sourcePoint" />
            <mxPoint x="1120" y="706" as="targetPoint" />
          </mxGeometry>
        </mxCell>
        <mxCell id="qyOjLSUGKGQvyTlfbUjv-24" value="" style="endArrow=classic;html=1;rounded=0;" parent="1" edge="1">
          <mxGeometry width="50" height="50" relative="1" as="geometry">
            <mxPoint x="161" y="715" as="sourcePoint" />
            <mxPoint x="1120" y="716" as="targetPoint" />
          </mxGeometry>
        </mxCell>
        <mxCell id="qyOjLSUGKGQvyTlfbUjv-23" value="&lt;span style=&quot;color: rgb(0, 0, 0); font-family: Helvetica; font-style: normal; font-variant-ligatures: normal; font-variant-caps: normal; letter-spacing: normal; orphans: 2; text-align: center; text-indent: 0px; text-transform: none; widows: 2; word-spacing: 0px; -webkit-text-stroke-width: 0px; background-color: rgb(251, 251, 251); text-decoration-thickness: initial; text-decoration-style: initial; text-decoration-color: initial; float: none; display: inline !important;&quot;&gt;&lt;b style=&quot;&quot;&gt;&lt;font style=&quot;font-size: 10px;&quot;&gt;[ siab/api/v1/case-instances/draft/{draft-id} ]&lt;/font&gt;&lt;/b&gt;&lt;/span&gt;" style="text;whiteSpace=wrap;html=1;" parent="1" vertex="1">
          <mxGeometry x="405" y="715" width="250" height="20" as="geometry" />
        </mxCell>
        <mxCell id="qyOjLSUGKGQvyTlfbUjv-25" value="" style="endArrow=classic;html=1;rounded=0;" parent="1" edge="1">
          <mxGeometry width="50" height="50" relative="1" as="geometry">
            <mxPoint x="160" y="799" as="sourcePoint" />
            <mxPoint x="1120" y="799" as="targetPoint" />
          </mxGeometry>
        </mxCell>
        <mxCell id="qyOjLSUGKGQvyTlfbUjv-26" value="[6] Submit the order" style="text;html=1;strokeColor=none;fillColor=none;align=center;verticalAlign=middle;whiteSpace=wrap;rounded=0;" parent="1" vertex="1">
          <mxGeometry x="350" y="786" width="320" height="10" as="geometry" />
        </mxCell>
        <mxCell id="qyOjLSUGKGQvyTlfbUjv-27" value="&lt;span style=&quot;color: rgb(0, 0, 0); font-family: Helvetica; font-style: normal; font-variant-ligatures: normal; font-variant-caps: normal; letter-spacing: normal; orphans: 2; text-align: center; text-indent: 0px; text-transform: none; widows: 2; word-spacing: 0px; -webkit-text-stroke-width: 0px; background-color: rgb(251, 251, 251); text-decoration-thickness: initial; text-decoration-style: initial; text-decoration-color: initial; float: none; display: inline !important;&quot;&gt;&lt;b style=&quot;&quot;&gt;&lt;font style=&quot;font-size: 10px;&quot;&gt;[ siab/api/v1/case-instances/start ]&lt;/font&gt;&lt;/b&gt;&lt;/span&gt;" style="text;whiteSpace=wrap;html=1;" parent="1" vertex="1">
          <mxGeometry x="420" y="796" width="180" height="20" as="geometry" />
        </mxCell>
        <mxCell id="1KF06LpZBA7tFEW2dyiu-1" value="Patient Service&lt;br style=&quot;border-color: var(--border-color);&quot;&gt;&lt;b style=&quot;border-color: var(--border-color);&quot;&gt;/patient-hub/&lt;/b&gt;" style="rounded=0;whiteSpace=wrap;html=1;" parent="1" vertex="1">
          <mxGeometry x="559" y="40" width="160" height="40" as="geometry" />
        </mxCell>
        <mxCell id="1KF06LpZBA7tFEW2dyiu-2" value="" style="endArrow=none;html=1;rounded=0;" parent="1" edge="1">
          <mxGeometry width="50" height="50" relative="1" as="geometry">
            <mxPoint x="640" y="1040" as="sourcePoint" />
            <mxPoint x="638.29" y="80" as="targetPoint" />
          </mxGeometry>
        </mxCell>
        <mxCell id="1KF06LpZBA7tFEW2dyiu-3" value="" style="endArrow=classic;html=1;rounded=0;" parent="1" edge="1">
          <mxGeometry width="50" height="50" relative="1" as="geometry">
            <mxPoint x="160" y="479" as="sourcePoint" />
            <mxPoint x="880" y="479" as="targetPoint" />
          </mxGeometry>
        </mxCell>
        <mxCell id="1KF06LpZBA7tFEW2dyiu-4" value="&lt;font style=&quot;font-size: 10px;&quot;&gt;[3] Creates a Practitioner&lt;br&gt;&lt;b style=&quot;border-color: var(--border-color); font-size: 12px;&quot;&gt;&lt;font style=&quot;border-color: var(--border-color); font-size: 10px;&quot; color=&quot;#0000ff&quot;&gt;Referring Dentist&amp;nbsp;&lt;/font&gt;&lt;/b&gt;&lt;b&gt;registry/api/v1/practitioner&lt;/b&gt;&lt;/font&gt;" style="text;html=1;strokeColor=none;fillColor=none;align=center;verticalAlign=middle;whiteSpace=wrap;rounded=0;" parent="1" vertex="1">
          <mxGeometry x="420" y="449" width="220" height="30" as="geometry" />
        </mxCell>
        <mxCell id="1KF06LpZBA7tFEW2dyiu-6" value="&lt;span style=&quot;border-color: var(--border-color);&quot;&gt;&lt;font style=&quot;font-size: 10px;&quot;&gt;&lt;b&gt;&lt;font color=&quot;#0000ff&quot;&gt;Contributors&lt;/font&gt; (scope:&amp;nbsp;SAME_ORGANIZATION)&lt;/b&gt;&lt;/font&gt;&lt;/span&gt;" style="text;html=1;strokeColor=none;fillColor=none;align=center;verticalAlign=middle;whiteSpace=wrap;rounded=0;" parent="1" vertex="1">
          <mxGeometry x="166.5" y="125" width="231" height="19" as="geometry" />
        </mxCell>
        <mxCell id="1KF06LpZBA7tFEW2dyiu-8" value="" style="endArrow=classic;html=1;rounded=0;" parent="1" edge="1">
          <mxGeometry width="50" height="50" relative="1" as="geometry">
            <mxPoint x="160" y="239" as="sourcePoint" />
            <mxPoint x="400" y="239" as="targetPoint" />
          </mxGeometry>
        </mxCell>
        <mxCell id="1KF06LpZBA7tFEW2dyiu-9" value="&lt;font style=&quot;font-size: 10px;&quot;&gt;[1] Searches for an existing Customers(Dentists)&amp;nbsp;&lt;br&gt;&lt;b style=&quot;&quot;&gt;/customer/api/v1/users/search&lt;/b&gt;&lt;/font&gt;" style="text;html=1;strokeColor=none;fillColor=none;align=center;verticalAlign=middle;whiteSpace=wrap;rounded=0;" parent="1" vertex="1">
          <mxGeometry x="166.5" y="216" width="229" height="10" as="geometry" />
        </mxCell>
        <mxCell id="1KF06LpZBA7tFEW2dyiu-10" value="&lt;font style=&quot;font-size: 10px;&quot;&gt;&lt;b&gt;&lt;font color=&quot;#0000ff&quot;&gt;Case Owners&lt;/font&gt; (scope:&amp;nbsp;NETWORK)&lt;/b&gt;&lt;/font&gt;" style="text;html=1;strokeColor=none;fillColor=none;align=center;verticalAlign=middle;whiteSpace=wrap;rounded=0;" parent="1" vertex="1">
          <mxGeometry x="189.5" y="241" width="179" height="19" as="geometry" />
        </mxCell>
        <mxCell id="1KF06LpZBA7tFEW2dyiu-12" value="&lt;font style=&quot;font-size: 10px;&quot;&gt;[3]&amp;nbsp;Searches a Practitioner&lt;br&gt;&lt;b style=&quot;border-color: var(--border-color); font-size: 12px;&quot;&gt;&lt;font style=&quot;border-color: var(--border-color); font-size: 10px;&quot; color=&quot;#0000ff&quot;&gt;Referring Dentist&lt;/font&gt;&lt;/b&gt;&lt;b&gt;&amp;nbsp;/registry/api/v1/practitioners/search&lt;/b&gt;&lt;/font&gt;" style="text;html=1;strokeColor=none;fillColor=none;align=center;verticalAlign=middle;whiteSpace=wrap;rounded=0;" parent="1" vertex="1">
          <mxGeometry x="400" y="480" width="260" height="30" as="geometry" />
        </mxCell>
        <mxCell id="1KF06LpZBA7tFEW2dyiu-14" value="" style="endArrow=classic;html=1;rounded=0;" parent="1" edge="1">
          <mxGeometry width="50" height="50" relative="1" as="geometry">
            <mxPoint x="161" y="880" as="sourcePoint" />
            <mxPoint x="1121" y="880" as="targetPoint" />
          </mxGeometry>
        </mxCell>
        <mxCell id="1KF06LpZBA7tFEW2dyiu-15" value="&lt;font style=&quot;font-size: 10px;&quot; color=&quot;#ff0000&quot;&gt;[7] Delete a draft&lt;/font&gt;" style="text;html=1;strokeColor=none;fillColor=none;align=center;verticalAlign=middle;whiteSpace=wrap;rounded=0;" parent="1" vertex="1">
          <mxGeometry x="465.5" y="867" width="129" height="10" as="geometry" />
        </mxCell>
        <mxCell id="1KF06LpZBA7tFEW2dyiu-16" value="&lt;span style=&quot;font-family: Helvetica; font-style: normal; font-variant-ligatures: normal; font-variant-caps: normal; letter-spacing: normal; orphans: 2; text-align: center; text-indent: 0px; text-transform: none; widows: 2; word-spacing: 0px; -webkit-text-stroke-width: 0px; background-color: rgb(251, 251, 251); text-decoration-thickness: initial; text-decoration-style: initial; text-decoration-color: initial; float: none; display: inline !important;&quot;&gt;&lt;b style=&quot;&quot;&gt;&lt;font color=&quot;#ff0000&quot; style=&quot;font-size: 10px;&quot;&gt;[&amp;nbsp;siab/api/v1/case-instances/draft/{draft-id}/delete&amp;nbsp;]&lt;/font&gt;&lt;br&gt;&lt;/b&gt;&lt;/span&gt;" style="text;whiteSpace=wrap;html=1;" parent="1" vertex="1">
          <mxGeometry x="421" y="877" width="499" height="20" as="geometry" />
        </mxCell>
        <mxCell id="1KF06LpZBA7tFEW2dyiu-17" value="Flowable" style="rounded=0;whiteSpace=wrap;html=1;" parent="1" vertex="1">
          <mxGeometry x="1280" y="40" width="160" height="40" as="geometry" />
        </mxCell>
        <mxCell id="1KF06LpZBA7tFEW2dyiu-18" value="" style="endArrow=none;html=1;rounded=0;" parent="1" edge="1">
          <mxGeometry width="50" height="50" relative="1" as="geometry">
            <mxPoint x="1370" y="1040" as="sourcePoint" />
            <mxPoint x="1370.29" y="80" as="targetPoint" />
          </mxGeometry>
        </mxCell>
      </root>
    </mxGraphModel>
  </diagram>
  <diagram id="NA3ei8uZmF7aApYLelDf" name="CCPS_OrderCreation">
    <mxGraphModel dx="1905" dy="1040" grid="1" gridSize="10" guides="1" tooltips="1" connect="1" arrows="1" fold="1" page="1" pageScale="1" pageWidth="2339" pageHeight="3300" math="0" shadow="0">
      <root>
        <mxCell id="0" />
        <mxCell id="1" parent="0" />
        <mxCell id="cg7FabnaDtXwgOQynBWt-1" value="CCPS UI" style="rounded=0;whiteSpace=wrap;html=1;" vertex="1" parent="1">
          <mxGeometry x="80" y="40" width="160" height="40" as="geometry" />
        </mxCell>
        <mxCell id="cg7FabnaDtXwgOQynBWt-2" value="Customer Service&lt;br style=&quot;border-color: var(--border-color);&quot;&gt;&lt;b style=&quot;border-color: var(--border-color);&quot;&gt;/customer/&lt;/b&gt;" style="rounded=0;whiteSpace=wrap;html=1;" vertex="1" parent="1">
          <mxGeometry x="320" y="40" width="160" height="40" as="geometry" />
        </mxCell>
        <mxCell id="cg7FabnaDtXwgOQynBWt-4" value="AXS-Order Service&lt;br style=&quot;border-color: var(--border-color);&quot;&gt;&lt;b style=&quot;border-color: var(--border-color);&quot;&gt;/order-hub/&lt;/b&gt;" style="rounded=0;whiteSpace=wrap;html=1;" vertex="1" parent="1">
          <mxGeometry x="800" y="40" width="160" height="40" as="geometry" />
        </mxCell>
        <mxCell id="cg7FabnaDtXwgOQynBWt-7" value="Patient Service&lt;br style=&quot;border-color: var(--border-color);&quot;&gt;&lt;b style=&quot;border-color: var(--border-color);&quot;&gt;/patient-hub/&lt;/b&gt;" style="rounded=0;whiteSpace=wrap;html=1;" vertex="1" parent="1">
          <mxGeometry x="559" y="40" width="160" height="40" as="geometry" />
        </mxCell>
        <mxCell id="cg7FabnaDtXwgOQynBWt-8" value="Flowable" style="rounded=0;whiteSpace=wrap;html=1;" vertex="1" parent="1">
          <mxGeometry x="1041" y="40" width="160" height="40" as="geometry" />
        </mxCell>
        <mxCell id="dioALfiUB6vZAP-TK34N-1" value="" style="endArrow=none;html=1;rounded=0;" edge="1" parent="1">
          <mxGeometry width="50" height="50" relative="1" as="geometry">
            <mxPoint x="160" y="1042.3529411764705" as="sourcePoint" />
            <mxPoint x="160" y="80" as="targetPoint" />
          </mxGeometry>
        </mxCell>
        <mxCell id="dioALfiUB6vZAP-TK34N-2" value="" style="endArrow=none;html=1;rounded=0;" edge="1" parent="1">
          <mxGeometry width="50" height="50" relative="1" as="geometry">
            <mxPoint x="399.58000000000004" y="1042.3529411764705" as="sourcePoint" />
            <mxPoint x="399.58000000000004" y="80" as="targetPoint" />
          </mxGeometry>
        </mxCell>
        <mxCell id="dioALfiUB6vZAP-TK34N-3" value="" style="endArrow=none;html=1;rounded=0;" edge="1" parent="1">
          <mxGeometry width="50" height="50" relative="1" as="geometry">
            <mxPoint x="638.5799999999999" y="1042.3529411764705" as="sourcePoint" />
            <mxPoint x="638.5799999999999" y="80" as="targetPoint" />
          </mxGeometry>
        </mxCell>
        <mxCell id="dioALfiUB6vZAP-TK34N-5" value="" style="endArrow=none;html=1;rounded=0;" edge="1" parent="1">
          <mxGeometry width="50" height="50" relative="1" as="geometry">
            <mxPoint x="879.5799999999999" y="1042.3529411764705" as="sourcePoint" />
            <mxPoint x="879.5799999999999" y="80" as="targetPoint" />
          </mxGeometry>
        </mxCell>
        <mxCell id="dioALfiUB6vZAP-TK34N-6" value="" style="endArrow=none;html=1;rounded=0;" edge="1" parent="1">
          <mxGeometry width="50" height="50" relative="1" as="geometry">
            <mxPoint x="1120.58" y="1042.3529411764705" as="sourcePoint" />
            <mxPoint x="1120.58" y="80" as="targetPoint" />
          </mxGeometry>
        </mxCell>
        <mxCell id="53gG4CT4lD9BHucNCaqe-1" value="" style="endArrow=classic;html=1;rounded=0;" edge="1" parent="1">
          <mxGeometry width="50" height="50" relative="1" as="geometry">
            <mxPoint x="160" y="119" as="sourcePoint" />
            <mxPoint x="400" y="120" as="targetPoint" />
          </mxGeometry>
        </mxCell>
        <mxCell id="53gG4CT4lD9BHucNCaqe-2" value="&lt;font style=&quot;font-size: 10px;&quot;&gt;[1] Searches for an existing Customers(Dentists)&amp;nbsp;&lt;br&gt;&lt;b&gt;/customer/api/v1/users/search&lt;/b&gt;&lt;/font&gt;" style="text;html=1;strokeColor=none;fillColor=none;align=center;verticalAlign=middle;whiteSpace=wrap;rounded=0;" vertex="1" parent="1">
          <mxGeometry x="164" y="96" width="241" height="10" as="geometry" />
        </mxCell>
        <mxCell id="53gG4CT4lD9BHucNCaqe-3" value="&lt;span style=&quot;border-color: var(--border-color);&quot;&gt;&lt;font style=&quot;font-size: 10px;&quot;&gt;&lt;b&gt;&lt;font color=&quot;#0000ff&quot;&gt;Contributors&lt;/font&gt; (scope:&amp;nbsp;SAME_ORGANIZATION)&lt;/b&gt;&lt;/font&gt;&lt;/span&gt;" style="text;html=1;strokeColor=none;fillColor=none;align=center;verticalAlign=middle;whiteSpace=wrap;rounded=0;" vertex="1" parent="1">
          <mxGeometry x="166.5" y="125" width="231" height="19" as="geometry" />
        </mxCell>
        <mxCell id="53gG4CT4lD9BHucNCaqe-4" value="" style="endArrow=classic;html=1;rounded=0;" edge="1" parent="1">
          <mxGeometry width="50" height="50" relative="1" as="geometry">
            <mxPoint x="160" y="239" as="sourcePoint" />
            <mxPoint x="400" y="239" as="targetPoint" />
          </mxGeometry>
        </mxCell>
        <mxCell id="53gG4CT4lD9BHucNCaqe-5" value="&lt;font style=&quot;font-size: 10px;&quot;&gt;[1] Searches for an existing Customers(Dentists)&amp;nbsp;&lt;br&gt;&lt;b style=&quot;&quot;&gt;/customer/api/v1/users/search&lt;/b&gt;&lt;/font&gt;" style="text;html=1;strokeColor=none;fillColor=none;align=center;verticalAlign=middle;whiteSpace=wrap;rounded=0;" vertex="1" parent="1">
          <mxGeometry x="166.5" y="216" width="229" height="10" as="geometry" />
        </mxCell>
        <mxCell id="53gG4CT4lD9BHucNCaqe-6" value="&lt;font style=&quot;font-size: 10px;&quot;&gt;&lt;b&gt;&lt;font color=&quot;#0000ff&quot;&gt;Case Owners&lt;/font&gt; (scope:&amp;nbsp;NETWORK)&lt;/b&gt;&lt;/font&gt;" style="text;html=1;strokeColor=none;fillColor=none;align=center;verticalAlign=middle;whiteSpace=wrap;rounded=0;" vertex="1" parent="1">
          <mxGeometry x="189.5" y="241" width="179" height="19" as="geometry" />
        </mxCell>
        <mxCell id="gPw8OeCeaEU8bDcqzL6b-1" value="" style="endArrow=classic;html=1;rounded=0;" edge="1" parent="1">
          <mxGeometry width="50" height="50" relative="1" as="geometry">
            <mxPoint x="160" y="358" as="sourcePoint" />
            <mxPoint x="640" y="359" as="targetPoint" />
          </mxGeometry>
        </mxCell>
        <mxCell id="gPw8OeCeaEU8bDcqzL6b-2" value="&lt;font style=&quot;font-size: 10px;&quot;&gt;[2] Searches for an existing Patient&lt;br&gt;&lt;b&gt;&lt;font color=&quot;#0000ff&quot;&gt;Patient&lt;/font&gt; /patient-hub/api/v1/patients/search&lt;/b&gt;&lt;br&gt;&lt;/font&gt;" style="text;html=1;strokeColor=none;fillColor=none;align=center;verticalAlign=middle;whiteSpace=wrap;rounded=0;" vertex="1" parent="1">
          <mxGeometry x="410" y="363" width="230" height="30" as="geometry" />
        </mxCell>
        <mxCell id="gPw8OeCeaEU8bDcqzL6b-3" value="&lt;font style=&quot;font-size: 10px;&quot;&gt;[2] Creates a new Patient.&lt;br&gt;&lt;b&gt;&lt;font color=&quot;#0000ff&quot;&gt;Patient &lt;/font&gt;patient-hub/api/v1/patients&lt;/b&gt;&lt;br&gt;&lt;/font&gt;" style="text;html=1;strokeColor=none;fillColor=none;align=center;verticalAlign=middle;whiteSpace=wrap;rounded=0;" vertex="1" parent="1">
          <mxGeometry x="442.5" y="322" width="175" height="34" as="geometry" />
        </mxCell>
        <mxCell id="gPw8OeCeaEU8bDcqzL6b-4" value="&lt;font style=&quot;font-size: 10px;&quot;&gt;&lt;b style=&quot;background-color: rgb(255, 255, 0);&quot;&gt;Only if order is linked to a Patient.&lt;/b&gt;&lt;/font&gt;" style="text;html=1;strokeColor=none;fillColor=none;align=center;verticalAlign=middle;whiteSpace=wrap;rounded=0;" vertex="1" parent="1">
          <mxGeometry x="156" y="333" width="250" height="30" as="geometry" />
        </mxCell>
        <mxCell id="O5MDPMeIyZ7L11bYUWxU-1" value="" style="endArrow=classic;html=1;rounded=0;" edge="1" parent="1">
          <mxGeometry width="50" height="50" relative="1" as="geometry">
            <mxPoint x="161" y="1000" as="sourcePoint" />
            <mxPoint x="881" y="1000" as="targetPoint" />
          </mxGeometry>
        </mxCell>
        <mxCell id="O5MDPMeIyZ7L11bYUWxU-2" value="&lt;font style=&quot;font-size: 10px;&quot; color=&quot;#ff0000&quot;&gt;[7] Delete a draft&lt;/font&gt;" style="text;html=1;strokeColor=none;fillColor=none;align=center;verticalAlign=middle;whiteSpace=wrap;rounded=0;" vertex="1" parent="1">
          <mxGeometry x="443.5" y="987" width="129" height="10" as="geometry" />
        </mxCell>
        <mxCell id="O5MDPMeIyZ7L11bYUWxU-3" value="&lt;span style=&quot;font-family: Helvetica; font-style: normal; font-variant-ligatures: normal; font-variant-caps: normal; letter-spacing: normal; orphans: 2; text-align: center; text-indent: 0px; text-transform: none; widows: 2; word-spacing: 0px; -webkit-text-stroke-width: 0px; background-color: rgb(251, 251, 251); text-decoration-thickness: initial; text-decoration-style: initial; text-decoration-color: initial; float: none; display: inline !important;&quot;&gt;&lt;b style=&quot;&quot;&gt;&lt;font color=&quot;#ff0000&quot; style=&quot;font-size: 10px;&quot;&gt;DELETE [ order-hub/api/v1/order-drafts/{draft-id} ]&lt;/font&gt;&lt;br&gt;&lt;/b&gt;&lt;/span&gt;" style="text;whiteSpace=wrap;html=1;" vertex="1" parent="1">
          <mxGeometry x="398.5" y="997" width="242.5" height="20" as="geometry" />
        </mxCell>
        <mxCell id="n1_9Vb2Vb5PdhMjbmsd--2" value="" style="endArrow=classic;html=1;rounded=0;" edge="1" parent="1">
          <mxGeometry width="50" height="50" relative="1" as="geometry">
            <mxPoint x="158.75" y="480" as="sourcePoint" />
            <mxPoint x="878.75" y="480" as="targetPoint" />
          </mxGeometry>
        </mxCell>
        <mxCell id="oaUxwZwfAvYTfEVoxmTd-1" value="&lt;font style=&quot;font-size: 10px;&quot;&gt;Creates a draft&lt;/font&gt;" style="text;html=1;strokeColor=none;fillColor=none;align=center;verticalAlign=middle;whiteSpace=wrap;rounded=0;" vertex="1" parent="1">
          <mxGeometry x="468.5" y="450" width="103" height="30" as="geometry" />
        </mxCell>
        <mxCell id="oaUxwZwfAvYTfEVoxmTd-2" value="&lt;b&gt;&lt;font style=&quot;font-size: 10px;&quot;&gt;POST [ order-hub/api/order-drafts ]&lt;/font&gt;&lt;/b&gt;" style="text;html=1;strokeColor=none;fillColor=none;align=center;verticalAlign=middle;whiteSpace=wrap;rounded=0;" vertex="1" parent="1">
          <mxGeometry x="410" y="480" width="213" height="30" as="geometry" />
        </mxCell>
        <mxCell id="oaUxwZwfAvYTfEVoxmTd-3" value="" style="endArrow=classic;html=1;rounded=0;" edge="1" parent="1">
          <mxGeometry width="50" height="50" relative="1" as="geometry">
            <mxPoint x="158.75" y="560" as="sourcePoint" />
            <mxPoint x="878.75" y="560" as="targetPoint" />
          </mxGeometry>
        </mxCell>
        <mxCell id="oaUxwZwfAvYTfEVoxmTd-4" value="&lt;font style=&quot;font-size: 10px;&quot;&gt;Searches for Implants&lt;/font&gt;" style="text;html=1;strokeColor=none;fillColor=none;align=center;verticalAlign=middle;whiteSpace=wrap;rounded=0;" vertex="1" parent="1">
          <mxGeometry x="468.5" y="530" width="103" height="30" as="geometry" />
        </mxCell>
        <mxCell id="oaUxwZwfAvYTfEVoxmTd-5" value="&lt;b&gt;&lt;font style=&quot;font-size: 10px;&quot;&gt;POST [ order-hub/api/implants/brand/search ]&lt;/font&gt;&lt;/b&gt;&lt;b style=&quot;border-color: var(--border-color);&quot;&gt;&lt;font style=&quot;border-color: var(--border-color); font-size: 10px;&quot;&gt;&lt;br&gt;&lt;b style=&quot;border-color: var(--border-color); font-size: 12px;&quot;&gt;&lt;font style=&quot;border-color: var(--border-color); font-size: 10px;&quot;&gt;POST [ order-hub/api/implants/connections/search ]&lt;br&gt;&lt;/font&gt;&lt;/b&gt;POST [ order-hub/api/implants/platforms/search ]&lt;/font&gt;&lt;/b&gt;&lt;b&gt;&lt;font style=&quot;font-size: 10px;&quot;&gt;&lt;br&gt;&lt;/font&gt;&lt;/b&gt;" style="text;html=1;strokeColor=none;fillColor=none;align=center;verticalAlign=middle;whiteSpace=wrap;rounded=0;" vertex="1" parent="1">
          <mxGeometry x="373.5" y="559" width="295" height="50" as="geometry" />
        </mxCell>
        <mxCell id="oaUxwZwfAvYTfEVoxmTd-6" value="" style="endArrow=classic;html=1;rounded=0;" edge="1" parent="1">
          <mxGeometry width="50" height="50" relative="1" as="geometry">
            <mxPoint x="161" y="680" as="sourcePoint" />
            <mxPoint x="881" y="680" as="targetPoint" />
          </mxGeometry>
        </mxCell>
        <mxCell id="oaUxwZwfAvYTfEVoxmTd-7" value="&lt;font style=&quot;font-size: 10px;&quot;&gt;Searches for Restorations&lt;/font&gt;" style="text;html=1;strokeColor=none;fillColor=none;align=center;verticalAlign=middle;whiteSpace=wrap;rounded=0;" vertex="1" parent="1">
          <mxGeometry x="442.5" y="650" width="162.75" height="30" as="geometry" />
        </mxCell>
        <mxCell id="oaUxwZwfAvYTfEVoxmTd-8" value="&lt;b&gt;&lt;font style=&quot;font-size: 10px;&quot;&gt;POST [ order-hub/api/restorations/products/search ]&lt;br&gt;&lt;/font&gt;&lt;/b&gt;&lt;b style=&quot;border-color: var(--border-color);&quot;&gt;&lt;font style=&quot;border-color: var(--border-color); font-size: 10px;&quot;&gt;POST [ order-hub/api/restorations/materials/search ]&lt;br&gt;&lt;/font&gt;&lt;/b&gt;&lt;b style=&quot;border-color: var(--border-color);&quot;&gt;&lt;font style=&quot;border-color: var(--border-color); font-size: 10px;&quot;&gt;POST [ order-hub/api/restorations/forms/search ]&lt;br&gt;&lt;/font&gt;&lt;/b&gt;&lt;b&gt;&lt;font style=&quot;font-size: 10px;&quot;&gt;&lt;br&gt;Stores the restoration drafts (after selections/ finaize a restoration/ hit next)&lt;br&gt;POST [ order-hub/api/order-drafts/{draft-id}/restorations/draft }]&lt;br&gt;&lt;/font&gt;&lt;/b&gt;&lt;b style=&quot;border-color: var(--border-color);&quot;&gt;&lt;font style=&quot;border-color: var(--border-color); font-size: 10px;&quot;&gt;&amp;nbsp;POST [ order-hub/api/order-drafts/{draft-id}/restorations }]&lt;br&gt;&lt;/font&gt;&lt;/b&gt;&lt;b style=&quot;border-color: var(--border-color);&quot;&gt;&lt;font style=&quot;border-color: var(--border-color); font-size: 10px;&quot;&gt;POST [ order-hub/api/order-drafts/{draft-id}/restorations/finalize }]&lt;/font&gt;&lt;/b&gt;&lt;b&gt;&lt;font style=&quot;font-size: 10px;&quot;&gt;&lt;br&gt;&lt;/font&gt;&lt;/b&gt;" style="text;html=1;strokeColor=none;fillColor=none;align=center;verticalAlign=middle;whiteSpace=wrap;rounded=0;" vertex="1" parent="1">
          <mxGeometry x="342.25" y="680" width="377.75" height="130" as="geometry" />
        </mxCell>
        <mxCell id="oaUxwZwfAvYTfEVoxmTd-9" value="" style="endArrow=classic;html=1;rounded=0;" edge="1" parent="1">
          <mxGeometry width="50" height="50" relative="1" as="geometry">
            <mxPoint x="160" y="880" as="sourcePoint" />
            <mxPoint x="880" y="880" as="targetPoint" />
          </mxGeometry>
        </mxCell>
        <mxCell id="oaUxwZwfAvYTfEVoxmTd-10" value="&lt;span style=&quot;font-size: 10px;&quot;&gt;Upload a document&lt;/span&gt;" style="text;html=1;strokeColor=none;fillColor=none;align=center;verticalAlign=middle;whiteSpace=wrap;rounded=0;" vertex="1" parent="1">
          <mxGeometry x="442.5" y="850" width="162.75" height="30" as="geometry" />
        </mxCell>
        <mxCell id="oaUxwZwfAvYTfEVoxmTd-11" value="&lt;b&gt;&lt;font style=&quot;font-size: 10px;&quot;&gt;POST [ order-hub/api/orders/{draft-id}/documents ]&lt;/font&gt;&lt;/b&gt;&lt;b style=&quot;border-color: var(--border-color);&quot;&gt;&lt;font style=&quot;border-color: var(--border-color); font-size: 10px;&quot;&gt;&lt;br&gt;&lt;/font&gt;&lt;/b&gt;&lt;b&gt;&lt;font style=&quot;font-size: 10px;&quot;&gt;&lt;br&gt;&lt;/font&gt;&lt;/b&gt;" style="text;html=1;strokeColor=none;fillColor=none;align=center;verticalAlign=middle;whiteSpace=wrap;rounded=0;" vertex="1" parent="1">
          <mxGeometry x="369.75" y="890" width="300" height="10" as="geometry" />
        </mxCell>
      </root>
    </mxGraphModel>
  </diagram>
</mxfile>
